<?xml version="1.0" encoding="utf-8"?>
<!-- Generator: Adobe Illustrator 16.0.0, SVG Export Plug-In . SVG Version: 6.00 Build 0)  -->
<!DOCTYPE svg PUBLIC "-//W3C//DTD SVG 1.1//EN" "http://www.w3.org/Graphics/SVG/1.1/DTD/svg11.dtd">
<svg version="1.1" id="Layer_1" xmlns="http://www.w3.org/2000/svg" xmlns:xlink="http://www.w3.org/1999/xlink" x="0px" y="0px"
	 width="100.333px" height="100px" viewBox="99.5 0 100.333 100" enable-background="new 99.5 0 100.333 100" xml:space="preserve">
<g>
	<g>
		<g>
			<g>
				
					<linearGradient id="SVGID_1_" gradientUnits="userSpaceOnUse" x1="699.2344" y1="-14.9297" x2="789.4971" y2="-14.9297" gradientTransform="matrix(1 0 0 -1 -594.2891 31.6875)">
					<stop  offset="0" style="stop-color:#EC1C24"/>
					<stop  offset="1" style="stop-color:#F6921E"/>
				</linearGradient>
				<path fill="url(#SVGID_1_)" d="M111.184,72.788c-3.959-6.715-6.238-14.545-6.238-22.91c0-24.923,20.207-45.128,45.132-45.128
					c24.923,0,45.13,20.205,45.13,45.128c0,8.365-2.274,16.195-6.235,22.91l4.064,15.696l0,0l-3.4-5.898l0,0l-38.378-66.471
					c-0.262-0.459-0.717-0.694-1.181-0.704c-0.463,0.013-0.919,0.248-1.179,0.704l-38.38,66.471l0,0l-3.398,5.898l0,0
					L111.184,72.788z"/>
			</g>
			<g>
				
					<linearGradient id="SVGID_2_" gradientUnits="userSpaceOnUse" x1="716.0176" y1="-34.3125" x2="772.7158" y2="-34.3125" gradientTransform="matrix(1 0 0 -1 -594.2891 31.6875)">
					<stop  offset="0" style="stop-color:#EC1C24"/>
					<stop  offset="1" style="stop-color:#F6921E"/>
				</linearGradient>
				<path fill="url(#SVGID_2_)" d="M154.614,68.147l20.519,6.862l-24.879-37.899c-0.042-0.07-0.106-0.112-0.176-0.122
					c-0.068,0.01-0.133,0.055-0.178,0.122L125.026,75.01l20.518-6.862l-23.815,16.848c7.748,6.263,17.606,10.016,28.349,10.016
					c10.736,0,20.602-3.753,28.349-10.016L154.614,68.147z"/>
			</g>
		</g>
	</g>
</g>
</svg>
