<?xml version="1.0" encoding="utf-8"?>
<!-- Generator: Adobe Illustrator 16.0.0, SVG Export Plug-In . SVG Version: 6.00 Build 0)  -->
<!DOCTYPE svg PUBLIC "-//W3C//DTD SVG 1.1//EN" "http://www.w3.org/Graphics/SVG/1.1/DTD/svg11.dtd">
<svg version="1.1" id="Layer_1" xmlns="http://www.w3.org/2000/svg" xmlns:xlink="http://www.w3.org/1999/xlink" x="0px" y="0px"
	 width="244px" height="244px" viewBox="0 0 244 244" enable-background="new 0 0 244 244" xml:space="preserve">
<rect x="-393.487" y="-29.5" width="293.746" height="277.085"/>
<path fill="#FFFFFF" d="M-244.884,251.766l-0.099,1.234l-8.622-0.695l0.1-1.234l3.614,0.291l0.829-10.254l1.392,0.111l-0.828,10.256
	L-244.884,251.766z"/>
<path fill="#FFFFFF" d="M-262.674,239.111l-2.76,11.19l-6.758-1.663l0.296-1.203l5.402,1.33l0.933-3.781l-5.052-1.244l0.296-1.202
	l5.052,1.244l0.938-3.804l-5.49-1.352l0.297-1.202L-262.674,239.111z"/>
<path fill="#FFFFFF" d="M-288.618,239.598c-0.162,0.551-0.083,1.066,0.235,1.545c0.318,0.478,0.799,0.854,1.441,1.127
	c0.47,0.201,0.913,0.299,1.33,0.297c0.414-0.002,0.775-0.096,1.086-0.277c0.307-0.184,0.532-0.443,0.676-0.782
	c0.121-0.282,0.157-0.555,0.109-0.817c-0.053-0.258-0.157-0.5-0.314-0.727c-0.158-0.222-0.336-0.426-0.535-0.613
	c-0.199-0.183-0.387-0.342-0.562-0.477l-0.954-0.749c-0.245-0.19-0.51-0.421-0.794-0.692c-0.288-0.274-0.54-0.588-0.756-0.94
	c-0.222-0.351-0.361-0.741-0.419-1.171c-0.058-0.428,0.019-0.891,0.23-1.387c0.245-0.574,0.615-1.027,1.113-1.363
	c0.494-0.336,1.086-0.518,1.775-0.547c0.687-0.029,1.437,0.129,2.252,0.477c0.76,0.324,1.366,0.727,1.817,1.208
	c0.448,0.481,0.737,1.008,0.869,1.581c0.127,0.572,0.088,1.156-0.118,1.755l-1.326-0.565c0.136-0.414,0.143-0.804,0.02-1.166
	c-0.128-0.359-0.346-0.682-0.654-0.963c-0.313-0.281-0.68-0.511-1.102-0.689c-0.491-0.209-0.965-0.317-1.423-0.324
	c-0.459-0.004-0.864,0.088-1.214,0.277c-0.352,0.193-0.61,0.482-0.774,0.869c-0.15,0.353-0.174,0.681-0.071,0.985
	c0.103,0.306,0.285,0.595,0.548,0.87c0.262,0.273,0.558,0.543,0.887,0.805l1.146,0.93c0.728,0.591,1.239,1.211,1.534,1.859
	c0.295,0.646,0.291,1.327-0.014,2.043c-0.253,0.594-0.635,1.043-1.144,1.348c-0.515,0.307-1.097,0.467-1.747,0.479
	c-0.655,0.015-1.321-0.122-1.999-0.411c-0.684-0.291-1.239-0.672-1.667-1.144c-0.429-0.468-0.709-0.979-0.84-1.532
	c-0.135-0.555-0.097-1.104,0.114-1.646L-288.618,239.598z"/>
<path fill="#FFFFFF" d="M-300.391,235.425l-0.662,1.048l-7.311-4.621l0.662-1.047l3.065,1.938l5.502-8.696l1.18,0.746l-5.502,8.696
	L-300.391,235.425z"/>
<path fill="#FFFFFF" d="M-320.929,221.909l7.648-8.627l1.045,0.925l-7.648,8.628L-320.929,221.909z"/>
<path fill="#FFFFFF" d="M-330.833,212.105l-1.054-1.291l4.937-9.084l-0.085-0.105l-9.895,3.018l-1.054-1.291l8.934-7.289
	l0.827,1.011l-6.788,5.538l0.071,0.088l9.067-2.748l0.798,0.976l-4.508,8.329l0.071,0.087l6.788-5.538l0.826,1.012L-330.833,212.105
	z"/>
<path fill="#FFFFFF" d="M-345.521,191.454l9.988-5.763l0.698,1.209l-9.988,5.763L-345.521,191.454z"/>
<path fill="#FFFFFF" d="M-355.438,169.461l10.784-4.088l0.479,1.264l-6.238,9.081l0.04,0.106l8.467-3.211l0.495,1.306l-10.784,4.088
	l-0.479-1.263l6.251-9.111l-0.04-0.105l-8.488,3.218L-355.438,169.461z"/>
<path fill="#FFFFFF" d="M-359.199,154.783l11.3-2.307l0.279,1.369l-11.3,2.305L-359.199,154.783z"/>
<path fill="#FFFFFF" d="M-349.789,138.369l0.059,1.462l-11.694-3.765l-0.058-1.44l11.354-4.692l0.059,1.461l-9.562,3.834l0.004,0.09
	L-349.789,138.369z M-354.312,138.01l-0.238-5.894l1.238-0.05l0.238,5.894L-354.312,138.01z"/>
<path fill="#FFFFFF" d="M-349.481,120.166l-11.449-1.389l0.168-1.386l10.219,1.24l0.646-5.319l1.23,0.15L-349.481,120.166z"/>
<path fill="#FFFFFF" d="M-333.574,63.08l1.02,0.703l-2.867,4.15l-1.02-0.704L-333.574,63.08z"/>
<path fill="#FFFFFF" d="M-299.442,26.154l-0.576-1.096l7.659-4.018l0.576,1.096l-3.211,1.685l4.784,9.11l-1.237,0.648l-4.784-9.11
	L-299.442,26.154z"/>
<path fill="#FFFFFF" d="M-277.954,27.452l-3.652-10.933l3.696-1.233c0.855-0.285,1.605-0.374,2.251-0.265
	c0.645,0.105,1.183,0.367,1.616,0.784c0.432,0.417,0.756,0.948,0.971,1.592s0.274,1.259,0.177,1.846
	c-0.097,0.586-0.371,1.112-0.82,1.579c-0.451,0.463-1.1,0.835-1.948,1.119l-2.991,0.998l-0.399-1.196l2.948-0.983
	c0.584-0.195,1.026-0.438,1.325-0.727c0.303-0.291,0.482-0.62,0.538-0.986c0.058-0.371,0.014-0.776-0.132-1.213
	c-0.146-0.438-0.356-0.793-0.629-1.066c-0.273-0.273-0.619-0.438-1.039-0.496c-0.42-0.062-0.926,0.006-1.517,0.204l-2.329,0.777
	l3.26,9.759L-277.954,27.452z M-274.445,20.823l4.333,4.013l-1.538,0.514l-4.291-4.028L-274.445,20.823z"/>
<path fill="#FFFFFF" d="M-255.382,10.062l1.379-0.224l1.225,7.533c0.126,0.778,0.056,1.502-0.212,2.173
	c-0.264,0.666-0.699,1.229-1.305,1.689c-0.607,0.456-1.357,0.756-2.25,0.901s-1.7,0.097-2.42-0.143
	c-0.72-0.244-1.313-0.64-1.779-1.188c-0.462-0.552-0.756-1.217-0.883-1.995l-1.225-7.533l1.378-0.224l1.207,7.422
	c0.091,0.555,0.293,1.03,0.608,1.423c0.315,0.39,0.718,0.672,1.211,0.847c0.495,0.17,1.06,0.204,1.693,0.101
	c0.634-0.103,1.159-0.313,1.575-0.632c0.415-0.322,0.709-0.718,0.88-1.187c0.174-0.473,0.216-0.987,0.125-1.543L-255.382,10.062z"/>
<path fill="#FFFFFF" d="M-236.771,12.039c-0.066-0.57-0.342-1.013-0.822-1.328c-0.48-0.315-1.07-0.473-1.768-0.473
	c-0.511,0-0.958,0.083-1.341,0.248c-0.379,0.165-0.675,0.392-0.889,0.681c-0.211,0.289-0.316,0.617-0.316,0.985
	c0,0.308,0.073,0.572,0.22,0.793c0.15,0.218,0.341,0.399,0.574,0.546c0.233,0.143,0.477,0.261,0.732,0.354
	c0.256,0.09,0.49,0.163,0.704,0.22l1.171,0.315c0.301,0.079,0.635,0.188,1.002,0.327c0.373,0.139,0.727,0.328,1.064,0.568
	c0.342,0.236,0.624,0.54,0.846,0.912c0.221,0.372,0.332,0.828,0.332,1.368c0,0.623-0.164,1.186-0.49,1.688
	c-0.322,0.503-0.797,0.902-1.42,1.199c-0.619,0.296-1.371,0.445-2.257,0.445c-0.826,0-1.541-0.133-2.146-0.4
	c-0.6-0.266-1.073-0.638-1.419-1.114c-0.341-0.477-0.535-1.03-0.58-1.66h1.442c0.037,0.435,0.184,0.795,0.439,1.081
	c0.259,0.281,0.586,0.491,0.98,0.63c0.398,0.135,0.826,0.203,1.284,0.203c0.533,0,1.011-0.086,1.435-0.259
	c0.425-0.177,0.761-0.42,1.009-0.732c0.248-0.315,0.372-0.683,0.372-1.103c0-0.383-0.107-0.694-0.321-0.934
	c-0.214-0.24-0.496-0.436-0.845-0.585c-0.35-0.15-0.727-0.281-1.133-0.394l-1.418-0.405c-0.901-0.259-1.614-0.628-2.14-1.109
	c-0.526-0.48-0.788-1.108-0.788-1.885c0-0.646,0.174-1.208,0.523-1.688c0.353-0.484,0.826-0.859,1.419-1.125
	c0.597-0.27,1.264-0.405,2-0.405c0.743,0,1.404,0.133,1.982,0.399c0.578,0.263,1.035,0.623,1.373,1.081
	c0.342,0.458,0.522,0.978,0.541,1.559H-236.771z"/>
<path fill="#FFFFFF" d="M-224.354,11.187l0.199-1.222l8.538,1.387l-0.199,1.222l-3.58-0.582l-1.65,10.155l-1.379-0.224l1.651-10.155
	L-224.354,11.187z"/>
<path fill="#FFFFFF" d="M-207.64,25.231l3.653-10.933l6.603,2.203l-0.393,1.174l-5.278-1.761l-1.233,3.694l4.936,1.646l-0.393,1.175
	l-4.936-1.647l-1.24,3.715l5.362,1.79l-0.394,1.174L-207.64,25.231z"/>
<path fill="#FFFFFF" d="M-188.765,32.912l-3.15-1.653l5.359-10.206l3.291,1.726c0.991,0.52,1.731,1.168,2.221,1.947
	c0.492,0.775,0.727,1.642,0.703,2.599c-0.022,0.955-0.312,1.96-0.865,3.017c-0.56,1.063-1.229,1.879-2.012,2.448
	c-0.779,0.565-1.641,0.864-2.582,0.896C-186.739,33.713-187.727,33.456-188.765,32.912z M-190.104,30.811l1.835,0.962
	c0.846,0.443,1.63,0.647,2.355,0.613c0.727-0.035,1.385-0.281,1.973-0.739s1.102-1.103,1.537-1.933
	c0.434-0.824,0.67-1.604,0.713-2.34c0.045-0.739-0.116-1.409-0.484-2.008c-0.365-0.603-0.947-1.114-1.746-1.532l-1.974-1.036
	L-190.104,30.811z"/>
<path fill="#FFFFFF" d="M-162.364,51.835l8.317-7.984l2.793,2.906c0.557,0.579,0.916,1.153,1.076,1.721
	c0.164,0.566,0.168,1.102,0.008,1.608c-0.156,0.503-0.438,0.95-0.844,1.34c-0.357,0.343-0.713,0.563-1.068,0.659
	c-0.353,0.099-0.695,0.11-1.028,0.035c-0.33-0.073-0.642-0.197-0.937-0.373l-0.08,0.078c0.228,0.27,0.383,0.611,0.469,1.024
	c0.084,0.413,0.058,0.852-0.079,1.316c-0.136,0.464-0.425,0.907-0.863,1.328c-0.417,0.4-0.883,0.666-1.397,0.796
	c-0.516,0.13-1.066,0.084-1.654-0.137c-0.588-0.222-1.196-0.66-1.825-1.315L-162.364,51.835z M-160.503,51.984l1.92,1.997
	c0.631,0.658,1.207,1.002,1.728,1.034c0.524,0.032,0.97-0.127,1.336-0.479c0.281-0.27,0.472-0.591,0.573-0.964
	c0.104-0.375,0.099-0.763-0.014-1.166c-0.107-0.406-0.336-0.79-0.685-1.152l-1.967-2.046L-160.503,51.984z M-156.734,48.366
	l1.794,1.867c0.292,0.303,0.614,0.519,0.967,0.648c0.356,0.132,0.712,0.166,1.065,0.101c0.357-0.062,0.682-0.233,0.975-0.514
	c0.365-0.351,0.553-0.776,0.563-1.274c0.014-0.501-0.245-1.028-0.776-1.58l-1.825-1.899L-156.734,48.366z"/>
<path fill="#FFFFFF" d="M-141.783,57.764l0.908,1.315l-2.613,5.688l0.076,0.111l6.248-0.425l0.908,1.315l-7.947,0.422l-3.911,2.698
	l-0.793-1.149l3.911-2.698L-141.783,57.764z"/>
<path fill="#FFFFFF" d="M-124.328,102.838l-0.389-1.34c0.363-0.191,0.661-0.428,0.896-0.711c0.236-0.279,0.412-0.588,0.529-0.926
	c0.121-0.336,0.184-0.688,0.186-1.056c0.003-0.368-0.049-0.736-0.154-1.104c-0.195-0.67-0.541-1.229-1.037-1.674
	c-0.496-0.442-1.121-0.729-1.873-0.858c-0.752-0.126-1.607-0.05-2.566,0.228s-1.723,0.67-2.291,1.179
	c-0.566,0.512-0.941,1.087-1.124,1.726c-0.181,0.643-0.175,1.299,0.021,1.969c0.105,0.368,0.258,0.706,0.457,1.016
	s0.438,0.574,0.717,0.794c0.285,0.223,0.601,0.389,0.949,0.499c0.353,0.113,0.731,0.153,1.137,0.122l0.389,1.34
	c-0.596,0.063-1.154,0.026-1.68-0.111c-0.524-0.137-1.002-0.358-1.43-0.664c-0.425-0.307-0.789-0.684-1.096-1.13
	c-0.304-0.443-0.537-0.944-0.699-1.502c-0.273-0.944-0.285-1.851-0.037-2.72s0.736-1.637,1.465-2.305
	c0.729-0.668,1.679-1.171,2.847-1.509c1.168-0.338,2.239-0.42,3.212-0.245c0.975,0.175,1.798,0.564,2.473,1.166
	c0.674,0.602,1.148,1.375,1.422,2.318c0.162,0.559,0.232,1.107,0.213,1.644c-0.02,0.541-0.129,1.055-0.328,1.542
	c-0.194,0.486-0.478,0.928-0.846,1.324C-123.333,102.242-123.787,102.573-124.328,102.838z"/>
<path fill="#FFFFFF" d="M-130.044,115.332l11.449-1.39l0.168,1.386l-10.22,1.24l0.647,5.319l-1.23,0.149L-130.044,115.332z"/>
<path fill="#FFFFFF" d="M-117.539,136.669l-11.523-0.464l0.057-1.395l11.523,0.463L-117.539,136.669z"/>
<path fill="#FFFFFF" d="M-130.509,149.885l11.299,2.305l-1.393,6.816l-1.213-0.248l1.111-5.447l-3.817-0.779l-1.041,5.095
	l-1.213-0.247l1.04-5.096l-3.84-0.783l-1.131,5.536l-1.215-0.247L-130.509,149.885z"/>
<path fill="#FFFFFF" d="M-127.187,179.178l-10.783-4.087l0.479-1.263l10.694-2.664l0.041-0.105l-8.468-3.209l0.496-1.306
	l10.783,4.088l-0.479,1.263l-10.725,2.676l-0.039,0.106l8.488,3.218L-127.187,179.178z"/>
<path fill="#FFFFFF" d="M-132.677,187.695l1.073,0.619l-4.325,7.487l-1.072-0.618l1.813-3.14l-8.915-5.144l0.699-1.209l8.915,5.144
	L-132.677,187.695z"/>
<path fill="#FFFFFF" d="M-148.832,208.438c0.486,0.31,1.002,0.377,1.551,0.205c0.548-0.174,1.043-0.529,1.484-1.07
	c0.322-0.396,0.541-0.793,0.655-1.194c0.112-0.397,0.124-0.771,0.035-1.12c-0.091-0.345-0.278-0.634-0.563-0.867
	c-0.238-0.193-0.49-0.305-0.754-0.332c-0.265-0.021-0.526,0.012-0.787,0.101c-0.258,0.09-0.504,0.204-0.737,0.342
	c-0.231,0.142-0.437,0.276-0.615,0.407l-0.985,0.707c-0.252,0.183-0.547,0.371-0.888,0.57c-0.342,0.198-0.713,0.354-1.112,0.463
	c-0.4,0.115-0.813,0.142-1.242,0.078c-0.428-0.063-0.852-0.267-1.27-0.607c-0.482-0.395-0.816-0.877-0.999-1.448
	c-0.187-0.567-0.196-1.187-0.032-1.856c0.162-0.666,0.524-1.344,1.084-2.029c0.522-0.639,1.078-1.109,1.668-1.408
	c0.586-0.297,1.172-0.428,1.76-0.395c0.586,0.037,1.137,0.238,1.654,0.602l-0.912,1.116c-0.36-0.246-0.732-0.36-1.115-0.343
	c-0.383,0.021-0.752,0.142-1.108,0.359c-0.356,0.223-0.679,0.512-0.969,0.866c-0.337,0.412-0.573,0.837-0.708,1.274
	c-0.131,0.44-0.155,0.854-0.07,1.244c0.088,0.391,0.294,0.719,0.62,0.984c0.297,0.242,0.606,0.357,0.927,0.344
	c0.321-0.015,0.651-0.109,0.988-0.285c0.337-0.174,0.678-0.383,1.021-0.627l1.211-0.842c0.771-0.533,1.509-0.853,2.213-0.955
	c0.705-0.104,1.357,0.09,1.959,0.581c0.502,0.408,0.826,0.9,0.979,1.474c0.152,0.58,0.143,1.183-0.025,1.811
	c-0.168,0.633-0.484,1.234-0.949,1.805c-0.471,0.574-0.992,1.002-1.564,1.281c-0.568,0.281-1.138,0.408-1.705,0.38
	c-0.572-0.024-1.089-0.214-1.552-0.567L-148.832,208.438z"/>
<path fill="#FFFFFF" d="M-196.289,238.787l-0.486-1.139l4.643-1.978l0.485,1.14L-196.289,238.787z"/>
<g>
	<path fill="#FFFFFF" d="M27.504,172.881l3.313-0.492l0.607,1.206l-10.574,1.478l-0.708-1.406l7.479-7.627l0.627,1.246l-2.354,2.394
		L27.504,172.881z M25.103,170.379l-2.154,2.192c-0.488,0.498-0.957,0.901-1.412,1.299l0.014,0.026
		c0.603-0.136,1.227-0.265,1.864-0.367l3.058-0.431L25.103,170.379z"/>
	<path fill="#FFFFFF" d="M14.91,161.068c-0.354-0.723-0.723-1.597-1.033-2.585c-0.563-1.789-0.548-3.193-0.027-4.285
		c0.517-1.106,1.476-1.958,3.036-2.449c1.574-0.495,3.016-0.413,4.187,0.209c1.186,0.618,2.14,1.954,2.73,3.829
		c0.279,0.887,0.47,1.645,0.597,2.297L14.91,161.068z M23.048,157.141c-0.042-0.333-0.171-0.795-0.325-1.282
		c-0.837-2.662-2.78-3.64-5.385-2.82c-2.28,0.701-3.321,2.444-2.493,5.078c0.203,0.644,0.413,1.112,0.588,1.419L23.048,157.141z"/>
	<path fill="#FFFFFF" d="M9.922,141.92l9.965-1.707l0.221,1.286l-9.966,1.708L9.922,141.92z"/>
	<path fill="#FFFFFF" d="M18.639,128.638l-9.955,3.738l-0.062-1.408l4.906-1.791c1.345-0.494,2.557-0.923,3.729-1.244l-0.001-0.03
		c-1.181-0.233-2.473-0.597-3.812-0.989l-5.064-1.489l-0.061-1.394l10.257,3.169L18.639,128.638z"/>
	<path fill="#FFFFFF" d="M15.67,114.272l3.06,1.358l-0.133,1.343l-9.719-4.415l0.155-1.567l10.398-2.435l-0.137,1.388l-3.271,0.761
		L15.67,114.272z M14.982,110.874l-2.993,0.698c-0.679,0.159-1.291,0.249-1.887,0.34l-0.003,0.03
		c0.582,0.208,1.178,0.433,1.77,0.688l2.813,1.273L14.982,110.874z"/>
	<path fill="#FFFFFF" d="M18.345,97.718l2.811,1.821l-0.342,1.306l-8.911-5.884l0.399-1.524l10.654-0.776l-0.354,1.35l-3.35,0.239
		L18.345,97.718z M18.198,94.252l-3.066,0.221c-0.695,0.051-1.314,0.044-1.918,0.041l-0.007,0.029
		c0.542,0.297,1.095,0.612,1.641,0.957l2.579,1.698L18.198,94.252z"/>
	<path fill="#FFFFFF" d="M27.283,60.405c0.274-0.577,0.672-1.306,1.272-2.168c0.738-1.059,1.524-1.663,2.311-1.847
		c0.711-0.181,1.503-0.032,2.242,0.482c0.751,0.523,1.188,1.157,1.327,1.875c0.209,0.986-0.126,2.125-0.855,3.171
		c-0.223,0.32-0.441,0.607-0.674,0.81l3.325,2.315l-0.746,1.071L27.283,60.405z M32.031,62.121c0.225-0.191,0.455-0.47,0.704-0.827
		c0.9-1.293,0.821-2.519-0.324-3.316c-1.096-0.763-2.166-0.356-2.989,0.826c-0.326,0.468-0.538,0.851-0.617,1.07L32.031,62.121z"/>
	<path fill="#FFFFFF" d="M37.386,47.304c0.354-0.574,0.946-1.314,1.562-1.971c0.955-1.018,1.757-1.5,2.604-1.568
		c0.677-0.064,1.376,0.2,1.945,0.734c0.974,0.914,1.044,2.132,0.578,3.156l0.033,0.031c0.731-0.384,1.574-0.23,2.504,0.313
		c1.254,0.725,2.13,1.217,2.558,1.331l-0.924,0.984c-0.321-0.075-1.109-0.506-2.224-1.161c-1.223-0.736-1.975-0.702-2.819,0.131
		l-0.842,0.897l3.195,2.999l-0.894,0.952L37.386,47.304z M41.638,49.505l0.914-0.974c0.955-1.017,1.003-2.187,0.161-2.977
		c-0.952-0.894-2.015-0.595-2.97,0.402c-0.431,0.459-0.695,0.829-0.795,1.023L41.638,49.505z"/>
	<path fill="#FFFFFF" d="M59.178,34.114c2.138,2.747,1.602,5.503-0.435,7.088c-2.107,1.641-4.859,1.159-6.74-1.257
		c-1.972-2.534-1.688-5.417,0.444-7.077C54.626,31.173,57.334,31.746,59.178,34.114z M53.086,39.065
		c1.327,1.705,3.439,2.514,5.062,1.251c1.634-1.272,1.387-3.495-0.023-5.306c-1.235-1.587-3.354-2.599-5.071-1.263
		C51.349,35.074,51.722,37.313,53.086,39.065z"/>
	<path fill="#FFFFFF" d="M71.133,32.649l-6.962-7.768l1.223-0.64l3.436,3.975c0.85,0.978,1.674,1.969,2.286,2.749l0.026-0.014
		c-0.32-0.967-0.597-2.176-0.897-3.493l-1.169-5.145l1.209-0.633l3.47,3.975c0.809,0.931,1.605,1.869,2.232,2.743l0.026-0.014
		c-0.329-1.081-0.598-2.209-0.903-3.472l-1.183-5.138l1.183-0.619l2.151,10.287l-1.209,0.633l-3.572-4.074
		c-0.877-0.997-1.522-1.776-2.115-2.618l-0.027,0.014c0.307,0.974,0.567,1.956,0.84,3.286l1.167,5.333L71.133,32.649z"/>
	<path fill="#FFFFFF" d="M91.085,18.998l-3.734,1.228l1.138,3.463l4.162-1.368l0.342,1.041l-5.401,1.775l-3.157-9.605l5.188-1.706
		l0.342,1.041l-3.948,1.298l0.998,3.035l3.734-1.227L91.085,18.998z"/>
	<path fill="#FFFFFF" d="M99.834,11.412c0.626-0.247,1.544-0.484,2.431-0.64c1.374-0.241,2.304-0.146,3.023,0.307
		c0.58,0.355,0.979,0.985,1.115,1.753c0.231,1.314-0.443,2.331-1.43,2.87l0.008,0.044c0.814,0.131,1.397,0.76,1.815,1.752
		c0.569,1.332,0.974,2.25,1.248,2.598l-1.33,0.233c-0.211-0.252-0.583-1.07-1.082-2.261c-0.537-1.322-1.159-1.745-2.334-1.585
		l-1.211,0.213l0.758,4.313l-1.285,0.226L99.834,11.412z M101.916,15.721l1.314-0.231c1.374-0.241,2.113-1.148,1.913-2.285
		c-0.226-1.285-1.255-1.683-2.616-1.459c-0.62,0.109-1.053,0.246-1.25,0.341L101.916,15.721z"/>
	<path fill="#FFFFFF" d="M117.474,9.163l0.494,10.1l-1.304,0.063L116.17,9.227L117.474,9.163z"/>
	<path fill="#FFFFFF" d="M127.421,19.212l0.833-10.079l1.42,0.118l2.809,5.366c0.65,1.243,1.146,2.353,1.539,3.425l0.031-0.013
		c-0.009-1.355,0.063-2.584,0.192-4.154l0.349-4.217l1.227,0.102l-0.833,10.079l-1.316-0.109l-2.777-5.378
		c-0.609-1.18-1.188-2.387-1.605-3.521l-0.046,0.011c-0.03,1.277-0.101,2.491-0.239,4.166l-0.356,4.307L127.421,19.212z"/>
	<path fill="#FFFFFF" d="M151.791,22.795c-0.618,0.063-1.822,0.118-3.147-0.213c-1.484-0.371-2.613-1.054-3.345-2.211
		c-0.642-1.026-0.838-2.466-0.457-3.995c0.744-2.922,3.287-4.561,6.577-3.74c1.136,0.283,1.962,0.752,2.333,1.062l-0.563,0.957
		c-0.466-0.363-1.074-0.716-2.063-0.963c-2.388-0.596-4.315,0.5-4.93,2.96c-0.621,2.489,0.512,4.333,2.797,4.904
		c0.83,0.207,1.427,0.232,1.754,0.159l0.73-2.926l-1.994-0.498l0.254-1.019l3.231,0.806L151.791,22.795z"/>
	<path fill="#FFFFFF" d="M180.109,36.564l2.4-3.552l0.611-6.606l1.229,0.831l-0.381,3.107c-0.105,0.852-0.201,1.529-0.335,2.289
		l0.025,0.017c0.604-0.387,1.26-0.741,2.011-1.156l2.766-1.496l1.229,0.831l-6.055,2.91l-2.408,3.565L180.109,36.564z"/>
	<path fill="#FFFFFF" d="M199.92,46.079c-2.361,2.556-5.167,2.476-7.062,0.725c-1.961-1.812-1.934-4.604,0.143-6.852
		c2.178-2.357,5.068-2.546,7.051-0.714C202.079,41.11,201.955,43.875,199.92,46.079z M194.046,40.877
		c-1.466,1.586-1.919,3.801-0.41,5.195c1.521,1.405,3.672,0.799,5.229-0.886c1.363-1.476,2.018-3.731,0.42-5.207
		C197.699,38.514,195.552,39.246,194.046,40.877z"/>
	<path fill="#FFFFFF" d="M211.074,51.186l-4.719,3.677c-1.785,1.392-1.925,2.774-1.095,3.838c0.921,1.182,2.292,1.331,4.054-0.042
		l4.718-3.677l0.812,1.041l-4.647,3.622c-2.448,1.908-4.458,1.402-5.804-0.324c-1.271-1.632-1.296-3.59,1.176-5.516l4.695-3.659
		L211.074,51.186z"/>
	<path fill="#FFFFFF" d="M220.727,65.251c0.439,0.511,0.964,1.3,1.401,2.086c0.679,1.219,0.894,2.129,0.702,2.958
		c-0.146,0.664-0.61,1.249-1.292,1.628c-1.166,0.649-2.348,0.346-3.181-0.41l-0.039,0.022c0.144,0.813-0.26,1.569-1.061,2.29
		c-1.071,0.974-1.807,1.658-2.046,2.031l-0.656-1.18c0.169-0.283,0.82-0.903,1.782-1.764c1.073-0.94,1.27-1.668,0.732-2.725
		l-0.598-1.075l-3.828,2.13l-0.634-1.141L220.727,65.251z M217.337,68.63l0.649,1.167c0.679,1.219,1.777,1.62,2.786,1.059
		c1.141-0.634,1.18-1.737,0.521-2.951c-0.307-0.55-0.578-0.915-0.732-1.069L217.337,68.63z"/>
	<path fill="#FFFFFF" d="M234.678,101.997l0.887,5.373l-1.081,0.178l-0.674-4.085l-3.315,0.547l0.623,3.774l-1.065,0.176
		l-0.623-3.774l-4.515,0.745l-0.212-1.288L234.678,101.997z"/>
	<path fill="#FFFFFF" d="M236.561,119.084l-5.984,0.098c-2.266,0.037-3.209,1.058-3.187,2.407c0.024,1.5,1.029,2.443,3.265,2.407
		l5.984-0.098l0.021,1.32l-5.895,0.096c-3.104,0.051-4.406-1.563-4.442-3.753c-0.033-2.07,1.126-3.649,4.261-3.701l5.955-0.097
		L236.561,119.084z"/>
	<path fill="#FFFFFF" d="M234.557,137.853l0.412-3.047l1.1,0.149l-1.005,7.416l-1.1-0.149l0.415-3.062l-8.917-1.208l0.177-1.308
		L234.557,137.853z"/>
	<path fill="#FFFFFF" d="M232.646,153.188l-5.741-1.692c-2.173-0.641-3.378,0.053-3.76,1.348c-0.424,1.438,0.254,2.64,2.398,3.271
		l5.741,1.692l-0.374,1.267l-5.654-1.667c-2.979-0.878-3.739-2.808-3.12-4.908c0.585-1.985,2.163-3.147,5.171-2.261l5.712,1.685
		L232.646,153.188z"/>
	<path fill="#FFFFFF" d="M226.843,169.188c-0.16,0.654-0.496,1.541-0.881,2.354c-0.596,1.262-1.211,1.967-1.996,2.293
		c-0.624,0.269-1.37,0.232-2.075-0.102c-1.208-0.57-1.649-1.708-1.52-2.825l-0.041-0.019c-0.577,0.59-1.427,0.703-2.479,0.471
		c-1.416-0.304-2.4-0.503-2.843-0.479l0.577-1.221c0.328-0.028,1.211,0.141,2.473,0.421c1.39,0.325,2.095,0.061,2.642-0.992
		l0.525-1.112l-3.961-1.871l0.558-1.18L226.843,169.188z M222.12,168.4l-0.57,1.207c-0.596,1.262-0.282,2.389,0.763,2.882
		c1.18,0.558,2.099-0.054,2.702-1.295c0.27-0.569,0.407-1.002,0.442-1.218L222.12,168.4z"/>
	<path fill="#FFFFFF" d="M211.779,185.322l2.166-3.277l-3.04-2.01l-2.415,3.653l-0.913-0.604l3.134-4.742l8.434,5.574l-3.011,4.554
		l-0.913-0.604l2.291-3.466l-2.665-1.762l-2.167,3.278L211.779,185.322z"/>
</g>
</svg>
