<?xml version="1.0" encoding="utf-8"?>
<!-- Generator: Adobe Illustrator 16.0.0, SVG Export Plug-In . SVG Version: 6.00 Build 0)  -->
<!DOCTYPE svg PUBLIC "-//W3C//DTD SVG 1.1//EN" "http://www.w3.org/Graphics/SVG/1.1/DTD/svg11.dtd">
<svg version="1.1" id="Layer_1" xmlns="http://www.w3.org/2000/svg" xmlns:xlink="http://www.w3.org/1999/xlink" x="0px" y="0px"
	 width="136.5px" height="38.667px" viewBox="0 0 136.5 38.667" enable-background="new 0 0 136.5 38.667" xml:space="preserve">
<linearGradient id="SVGID_1_" gradientUnits="userSpaceOnUse" x1="-106.5034" y1="-135.1738" x2="-89.7329" y2="-135.1738" gradientTransform="matrix(-4.371139e-008 1 -1 -4.371139e-008 -46.0005 116.999)">
	<stop  offset="0" style="stop-color:#EC1C24"/>
	<stop  offset="1" style="stop-color:#F6921E"/>
</linearGradient>
<path fill="url(#SVGID_1_)" d="M76.464,10.912H64.362c-0.54,0-0.997,0.456-0.997,0.997c0,0.539,0.457,0.997,0.997,0.997h11.667
	c1.911,0,2.326,1.536,2.326,2.533c0,0.995-0.415,2.533-2.326,2.533H65.359v-2.533c0-0.541-0.458-0.997-0.997-0.997
	c-0.54,0-0.997,0.456-0.997,0.997v3.529c0,0.538,0.457,0.995,0.997,0.995h12.311c2.261-0.124,3.612-2.47,3.612-4.524
	C80.285,13.34,78.853,10.912,76.464,10.912z M55.955,11.514c-0.477-0.643-1.267-1.018-2.097-1.018c-0.891,0-1.702,0.436-2.178,1.08
	l-5.044,6.787c-0.146,0.167-0.209,0.375-0.209,0.604c0,0.538,0.458,0.995,0.997,0.995c0.292,0,0.581-0.144,0.768-0.373l4.879-6.477
	c0.166-0.207,0.478-0.56,0.788-0.56c0.312,0,0.624,0.332,0.811,0.56l4.836,6.456c0.186,0.25,0.477,0.394,0.789,0.394
	c0.539,0,0.996-0.457,0.996-0.995c0-0.271-0.124-0.519-0.29-0.707L55.955,11.514z M83.357,10.912c-0.539,0-0.997,0.456-0.997,0.997
	v7.059c0,0.538,0.458,0.995,0.997,0.995c0.54,0,0.997-0.457,0.997-0.995v-7.059C84.354,11.368,83.896,10.912,83.357,10.912z
	 M101.085,12.51c0.145-0.166,0.207-0.375,0.207-0.602c0-0.541-0.456-0.997-0.996-0.997c-0.29,0-0.581,0.146-0.768,0.374
	l-4.878,6.476c-0.166,0.209-0.478,0.561-0.789,0.561c-0.311,0-0.623-0.333-0.81-0.561l-4.836-6.456
	c-0.188-0.249-0.478-0.394-0.79-0.394c-0.54,0-0.997,0.456-0.997,0.997c0,0.27,0.125,0.518,0.292,0.705l5.043,6.747
	c0.5,0.624,1.266,1.018,2.098,1.018c0.893,0,1.682-0.436,2.18-1.081l5.023-6.767L101.085,12.51z M131.464,18.26l-5.044-6.747
	c-0.479-0.643-1.266-1.018-2.097-1.018c-0.893,0-1.702,0.436-2.18,1.08l-5.044,6.787c-0.145,0.167-0.208,0.375-0.208,0.604
	c0,0.538,0.456,0.995,0.997,0.995c0.292,0,0.58-0.144,0.768-0.373l4.877-6.477c0.167-0.207,0.479-0.56,0.79-0.56
	c0.311,0,0.623,0.332,0.809,0.56l4.837,6.456c0.188,0.25,0.479,0.394,0.79,0.394c0.539,0,0.997-0.457,0.997-0.995
	C131.756,18.696,131.63,18.448,131.464,18.26z M109.479,11.514c-0.478-0.643-1.265-1.018-2.095-1.018
	c-0.895,0-1.703,0.436-2.182,1.08l-5.044,6.787c-0.146,0.167-0.208,0.375-0.208,0.604c0,0.538,0.458,0.995,0.998,0.995
	c0.291,0,0.581-0.144,0.768-0.373l4.878-6.477c0.166-0.207,0.477-0.56,0.79-0.56c0.31,0,0.621,0.332,0.809,0.56l4.836,6.456
	c0.187,0.25,0.478,0.394,0.789,0.394c0.54,0,0.996-0.457,0.996-0.995c0-0.271-0.124-0.519-0.29-0.707L109.479,11.514z
	 M47.702,23.354c0.189,0,0.365,0.035,0.532,0.107c0.166,0.072,0.31,0.169,0.433,0.292c0.123,0.124,0.219,0.267,0.292,0.433
	c0.071,0.167,0.107,0.345,0.107,0.533c0,0.189-0.032,0.363-0.094,0.525c-0.063,0.162-0.156,0.301-0.278,0.421
	c-0.124,0.121-0.277,0.216-0.465,0.285c-0.187,0.067-0.402,0.102-0.646,0.102h-0.856v1.143h-0.734v-3.84H47.702z M47.702,25.389
	c0.107,0,0.202-0.018,0.283-0.054c0.08-0.037,0.146-0.086,0.197-0.15c0.05-0.063,0.088-0.135,0.112-0.216
	c0.025-0.08,0.037-0.163,0.037-0.251c0-0.087-0.014-0.174-0.046-0.26c-0.032-0.085-0.077-0.16-0.137-0.227
	c-0.06-0.066-0.133-0.122-0.221-0.165c-0.087-0.041-0.188-0.062-0.304-0.062h-0.897v1.384H47.702z M52.129,27.267
	c-0.273,0-0.53-0.051-0.771-0.157c-0.241-0.105-0.452-0.247-0.631-0.428c-0.181-0.179-0.323-0.39-0.428-0.631
	c-0.104-0.241-0.157-0.5-0.157-0.778c0-0.272,0.052-0.529,0.157-0.772c0.105-0.243,0.248-0.455,0.428-0.635
	c0.179-0.179,0.39-0.322,0.631-0.428c0.242-0.105,0.498-0.157,0.771-0.157c0.275,0,0.535,0.051,0.776,0.157
	c0.24,0.106,0.452,0.249,0.632,0.428c0.18,0.181,0.322,0.392,0.426,0.635c0.105,0.243,0.159,0.5,0.159,0.772
	c0,0.277-0.053,0.537-0.159,0.778c-0.104,0.241-0.247,0.452-0.426,0.631c-0.18,0.182-0.392,0.323-0.632,0.428
	C52.664,27.215,52.405,27.267,52.129,27.267z M52.132,23.967c-0.176,0-0.338,0.036-0.491,0.108
	c-0.151,0.071-0.284,0.167-0.397,0.286c-0.115,0.12-0.203,0.257-0.27,0.417c-0.066,0.159-0.1,0.324-0.1,0.495
	c0,0.176,0.033,0.342,0.1,0.499c0.066,0.159,0.155,0.297,0.27,0.417c0.113,0.121,0.246,0.217,0.397,0.289
	c0.153,0.071,0.315,0.107,0.491,0.107c0.174,0,0.337-0.036,0.489-0.107c0.152-0.072,0.285-0.168,0.398-0.289
	c0.114-0.12,0.203-0.259,0.27-0.417c0.066-0.157,0.1-0.323,0.1-0.499c0-0.171-0.033-0.336-0.1-0.495
	c-0.066-0.16-0.156-0.297-0.27-0.417c-0.113-0.119-0.246-0.214-0.398-0.286C52.469,24.003,52.306,23.967,52.132,23.967z
	 M60.118,23.358l-1.432,3.835h-0.073l-1.038-2.234l-1.05,2.24h-0.068l-1.416-3.841h0.781l0.75,2.104l0.977-2.104h0.046l0.976,2.109
	l0.766-2.109H60.118z M62.113,24.005v0.959h1.856v0.667h-1.856v0.902h2.093v0.661h-2.828v-3.84h2.828v0.651H62.113z M66.481,27.193
	h-0.733v-3.84h1.743c0.196,0,0.376,0.034,0.54,0.097c0.162,0.064,0.301,0.156,0.417,0.273c0.116,0.117,0.206,0.256,0.271,0.418
	c0.064,0.163,0.097,0.341,0.097,0.533c0,0.291-0.073,0.545-0.218,0.762c-0.146,0.216-0.339,0.372-0.58,0.466
	c0.323,0.426,0.64,0.857,0.955,1.29h-0.875c-0.153-0.199-0.304-0.399-0.45-0.603c-0.146-0.202-0.293-0.41-0.439-0.62h-0.727V27.193z
	 M66.481,25.322h1.01c0.066,0,0.135-0.014,0.206-0.04c0.072-0.027,0.136-0.066,0.192-0.122c0.056-0.053,0.101-0.121,0.138-0.201
	c0.038-0.08,0.055-0.175,0.055-0.284c0-0.055-0.006-0.122-0.021-0.199c-0.014-0.078-0.041-0.151-0.082-0.219
	c-0.042-0.071-0.102-0.131-0.178-0.179c-0.077-0.049-0.18-0.073-0.309-0.073h-1.01V25.322z M71.15,27.193h-0.734v-3.835h0.734
	V27.193z M76.141,27.193l-2.524-2.281v2.281h-0.735v-3.835h0.079l2.523,2.319v-2.319h0.735v3.835H76.141z M81.573,25.096
	c-0.001,0.073-0.004,0.142-0.004,0.204c-0.003,0.056-0.006,0.112-0.006,0.165c0,0.054-0.001,0.096-0.005,0.124
	c-0.02,0.242-0.086,0.465-0.196,0.671c-0.109,0.207-0.251,0.385-0.424,0.533c-0.174,0.149-0.373,0.266-0.599,0.35
	c-0.225,0.083-0.461,0.125-0.71,0.125c-0.273,0-0.53-0.051-0.772-0.157c-0.24-0.105-0.452-0.247-0.632-0.428
	c-0.183-0.179-0.326-0.39-0.431-0.631c-0.106-0.241-0.16-0.5-0.16-0.772s0.053-0.531,0.16-0.773
	c0.105-0.243,0.249-0.454,0.431-0.635c0.18-0.179,0.392-0.322,0.632-0.428c0.242-0.104,0.499-0.156,0.772-0.156
	c0.346,0,0.664,0.082,0.951,0.242c0.289,0.161,0.523,0.376,0.701,0.645l-0.629,0.383c-0.112-0.164-0.258-0.302-0.438-0.413
	c-0.181-0.113-0.375-0.169-0.585-0.169c-0.176,0-0.339,0.036-0.49,0.107c-0.153,0.072-0.286,0.168-0.401,0.286
	c-0.113,0.12-0.203,0.259-0.27,0.417c-0.066,0.16-0.1,0.324-0.1,0.496c0,0.176,0.033,0.342,0.1,0.5
	c0.066,0.157,0.157,0.295,0.27,0.414c0.115,0.12,0.248,0.214,0.401,0.286c0.151,0.071,0.314,0.107,0.49,0.107
	c0.133,0,0.261-0.02,0.382-0.06c0.123-0.04,0.235-0.097,0.335-0.172c0.103-0.073,0.19-0.16,0.266-0.261
	c0.076-0.102,0.13-0.212,0.165-0.336H79.36v-0.661H81.573z M88.829,23.358c-0.097,0.163-0.209,0.345-0.337,0.552
	c-0.129,0.206-0.257,0.417-0.392,0.633c-0.133,0.214-0.263,0.426-0.393,0.633c-0.129,0.209-0.242,0.396-0.341,0.565v1.452h-0.735
	v-1.452c-0.227-0.399-0.469-0.795-0.724-1.191c-0.255-0.395-0.499-0.792-0.728-1.191h0.854c0.158,0.263,0.319,0.535,0.482,0.813
	c0.166,0.28,0.326,0.552,0.483,0.813c0.077-0.122,0.158-0.252,0.241-0.394c0.083-0.14,0.168-0.28,0.252-0.423
	c0.083-0.14,0.166-0.28,0.249-0.418c0.083-0.14,0.16-0.27,0.233-0.392H88.829z M91.583,27.267c-0.271,0-0.53-0.051-0.771-0.157
	s-0.453-0.247-0.632-0.428c-0.179-0.179-0.323-0.39-0.427-0.631c-0.106-0.241-0.157-0.5-0.157-0.778
	c0-0.272,0.051-0.529,0.157-0.772c0.104-0.243,0.248-0.455,0.427-0.635c0.18-0.179,0.391-0.322,0.632-0.428
	c0.241-0.105,0.5-0.157,0.771-0.157c0.277,0,0.535,0.051,0.776,0.157c0.241,0.106,0.453,0.249,0.632,0.428
	c0.18,0.181,0.323,0.392,0.428,0.635c0.105,0.243,0.159,0.5,0.159,0.772c0,0.277-0.053,0.537-0.159,0.778
	c-0.105,0.241-0.248,0.452-0.428,0.631c-0.18,0.182-0.391,0.323-0.632,0.428S91.86,27.267,91.583,27.267z M91.586,23.967
	c-0.175,0-0.337,0.036-0.489,0.108c-0.153,0.071-0.285,0.167-0.398,0.286c-0.113,0.12-0.203,0.257-0.27,0.417
	c-0.066,0.159-0.1,0.324-0.1,0.495c0,0.176,0.033,0.342,0.1,0.499c0.066,0.159,0.156,0.297,0.27,0.417
	c0.114,0.121,0.246,0.217,0.398,0.289c0.152,0.071,0.313,0.107,0.489,0.107c0.174,0,0.337-0.036,0.489-0.107
	c0.153-0.072,0.285-0.168,0.398-0.289c0.113-0.12,0.203-0.259,0.27-0.417c0.066-0.157,0.101-0.323,0.101-0.499
	c0-0.171-0.034-0.336-0.101-0.495c-0.066-0.16-0.156-0.297-0.27-0.417c-0.114-0.119-0.246-0.214-0.398-0.286
	C91.923,24.003,91.76,23.967,91.586,23.967z M96.662,27.262c-0.249,0-0.475-0.039-0.678-0.115c-0.201-0.077-0.375-0.186-0.518-0.326
	c-0.145-0.14-0.254-0.31-0.333-0.509c-0.079-0.199-0.119-0.421-0.119-0.666v-2.289h0.734v2.285c0,0.19,0.031,0.35,0.095,0.476
	c0.063,0.126,0.14,0.226,0.233,0.299c0.092,0.073,0.192,0.125,0.3,0.151c0.106,0.028,0.199,0.043,0.285,0.043
	c0.084,0,0.179-0.015,0.287-0.043c0.106-0.026,0.205-0.078,0.298-0.151s0.171-0.173,0.232-0.299
	c0.064-0.125,0.096-0.285,0.096-0.476v-2.285h0.732v2.289c0,0.244-0.038,0.466-0.115,0.666c-0.076,0.199-0.186,0.369-0.329,0.509
	c-0.145,0.14-0.317,0.249-0.521,0.326C97.14,27.223,96.914,27.262,96.662,27.262z M100.669,27.193h-0.734v-3.84h1.745
	c0.196,0,0.376,0.034,0.539,0.097c0.163,0.064,0.302,0.156,0.417,0.273c0.116,0.117,0.206,0.256,0.27,0.418
	c0.064,0.163,0.099,0.341,0.099,0.533c0,0.291-0.074,0.545-0.22,0.762c-0.145,0.216-0.338,0.372-0.579,0.466
	c0.323,0.426,0.641,0.857,0.956,1.29h-0.876c-0.154-0.199-0.303-0.399-0.449-0.603c-0.147-0.202-0.293-0.41-0.44-0.62h-0.727V27.193
	z M100.669,25.322h1.01c0.064,0,0.135-0.014,0.206-0.04c0.07-0.027,0.134-0.066,0.19-0.122c0.056-0.053,0.102-0.121,0.139-0.201
	c0.036-0.08,0.055-0.175,0.055-0.284c0-0.055-0.007-0.122-0.022-0.199c-0.013-0.078-0.041-0.151-0.083-0.219
	c-0.041-0.071-0.102-0.131-0.177-0.179c-0.076-0.049-0.181-0.073-0.308-0.073h-1.01V25.322z M107.814,24.005v0.949h1.852v0.677
	h-1.852v1.563h-0.734v-3.84h2.822v0.651H107.814z M112.934,27.262c-0.249,0-0.475-0.039-0.676-0.115
	c-0.203-0.077-0.376-0.186-0.521-0.326c-0.142-0.14-0.254-0.31-0.333-0.509s-0.117-0.421-0.117-0.666v-2.289h0.733v2.285
	c0,0.19,0.032,0.35,0.095,0.476c0.064,0.126,0.141,0.226,0.233,0.299c0.093,0.073,0.194,0.125,0.3,0.151
	c0.106,0.028,0.201,0.043,0.285,0.043s0.18-0.015,0.287-0.043c0.106-0.026,0.207-0.078,0.298-0.151
	c0.093-0.073,0.171-0.173,0.234-0.299c0.063-0.125,0.095-0.285,0.095-0.476v-2.285h0.735v2.289c0,0.244-0.038,0.466-0.116,0.666
	c-0.077,0.199-0.187,0.369-0.331,0.509c-0.145,0.14-0.317,0.249-0.52,0.326C113.414,27.223,113.186,27.262,112.934,27.262z
	 M118.752,24.005h-1.096v3.188h-0.734v-3.188h-1.101v-0.651h2.931V24.005z M121.69,27.262c-0.249,0-0.473-0.039-0.677-0.115
	c-0.203-0.077-0.376-0.186-0.52-0.326c-0.144-0.14-0.254-0.31-0.334-0.509c-0.078-0.199-0.116-0.421-0.116-0.666v-2.289h0.733v2.285
	c0,0.19,0.032,0.35,0.095,0.476c0.063,0.126,0.141,0.226,0.233,0.299c0.091,0.073,0.193,0.125,0.299,0.151
	c0.106,0.028,0.202,0.043,0.286,0.043s0.178-0.015,0.285-0.043c0.108-0.026,0.208-0.078,0.301-0.151
	c0.092-0.073,0.17-0.173,0.233-0.299c0.063-0.125,0.095-0.285,0.095-0.476v-2.285h0.735v2.289c0,0.244-0.039,0.466-0.116,0.666
	c-0.078,0.199-0.188,0.369-0.332,0.509c-0.143,0.14-0.316,0.249-0.517,0.326C122.169,27.223,121.942,27.262,121.69,27.262z
	 M125.698,27.193h-0.734v-3.84h1.745c0.195,0,0.376,0.034,0.539,0.097c0.163,0.064,0.303,0.156,0.417,0.273
	c0.116,0.117,0.205,0.256,0.271,0.418c0.065,0.163,0.097,0.341,0.097,0.533c0,0.291-0.071,0.545-0.217,0.762
	c-0.145,0.216-0.34,0.372-0.581,0.466c0.323,0.426,0.642,0.857,0.957,1.29h-0.877c-0.153-0.199-0.304-0.399-0.45-0.603
	c-0.146-0.202-0.292-0.41-0.438-0.62h-0.727V27.193z M125.698,25.322h1.01c0.066,0,0.135-0.014,0.205-0.04
	c0.072-0.027,0.136-0.066,0.192-0.122c0.056-0.053,0.103-0.121,0.139-0.201c0.037-0.08,0.055-0.175,0.055-0.284
	c0-0.055-0.007-0.122-0.021-0.199c-0.015-0.078-0.043-0.151-0.083-0.219c-0.043-0.071-0.101-0.131-0.179-0.179
	c-0.076-0.049-0.179-0.073-0.308-0.073h-1.01V25.322z M130.262,24.005v0.959h1.857v0.667h-1.857v0.902h2.094v0.661h-2.829v-3.84
	h2.829v0.651H130.262z"/>
<g>
	<g>
		<g>
			<g>
				
					<linearGradient id="SVGID_2_" gradientUnits="userSpaceOnUse" x1="350.9854" y1="-169.064" x2="385.7471" y2="-169.064" gradientTransform="matrix(1 0 0 1 -348.2891 186.6875)">
					<stop  offset="0" style="stop-color:#EC1C24"/>
					<stop  offset="1" style="stop-color:#F6921E"/>
				</linearGradient>
				<path fill="url(#SVGID_2_)" d="M5.098,27.702c-1.525-2.585-2.402-5.601-2.402-8.822c0-9.599,7.782-17.38,17.381-17.38
					c9.599,0,17.381,7.781,17.381,17.38c0,3.222-0.876,6.237-2.401,8.822l1.565,6.045l0,0l-1.31-2.27l0,0l-14.78-25.6
					c-0.101-0.177-0.276-0.267-0.455-0.271c-0.178,0.005-0.354,0.095-0.454,0.271l-14.781,25.6l0,0l-1.309,2.27l0,0L5.098,27.702z"
					/>
			</g>
			<g>
				
					<linearGradient id="SVGID_3_" gradientUnits="userSpaceOnUse" x1="357.4482" y1="-161.5986" x2="379.2852" y2="-161.5986" gradientTransform="matrix(1 0 0 1 -348.2891 186.6875)">
					<stop  offset="0" style="stop-color:#EC1C24"/>
					<stop  offset="1" style="stop-color:#F6921E"/>
				</linearGradient>
				<path fill="url(#SVGID_3_)" d="M21.824,25.916l7.903,2.643l-9.582-14.596c-0.016-0.027-0.041-0.043-0.068-0.047
					c-0.026,0.004-0.051,0.021-0.068,0.047l-9.58,14.596l7.902-2.643l-9.172,6.489c2.984,2.411,6.781,3.857,10.918,3.857
					c4.135,0,7.935-1.446,10.918-3.857L21.824,25.916z"/>
			</g>
		</g>
	</g>
</g>
</svg>
