<?xml version="1.0" encoding="utf-8"?>
<!-- Generator: Adobe Illustrator 16.0.0, SVG Export Plug-In . SVG Version: 6.00 Build 0)  -->
<!DOCTYPE svg PUBLIC "-//W3C//DTD SVG 1.1//EN" "http://www.w3.org/Graphics/SVG/1.1/DTD/svg11.dtd">
<svg version="1.1" id="Layer_1" xmlns="http://www.w3.org/2000/svg" xmlns:xlink="http://www.w3.org/1999/xlink" x="0px" y="0px"
	 width="100px" height="100px" viewBox="0 0 100 100" enable-background="new 0 0 100 100" xml:space="preserve">
<g>
	<path fill-rule="evenodd" clip-rule="evenodd" fill="#030303" d="M51.357,98.971c-8.78-0.011-16.248-0.178-23.671-1.116
		c-5.731-0.723-11.397-1.774-16.577-4.524c-3.778-2.008-6.682-4.796-7.52-9.207c-0.735-3.869,0.278-7.435,2.104-10.811
		c2.902-5.364,7.188-9.455,12.165-12.833c10.335-7.019,21.795-10.465,34.271-9.964c13.799,0.554,26.022,5.303,36.221,14.787
		c3.494,3.249,6.314,7.019,7.791,11.645c2.097,6.571,0.056,12.12-5.807,15.728c-3.802,2.34-8.03,3.507-12.363,4.333
		C68.745,98.762,59.399,98.906,51.357,98.971z M50.641,92.022c3.619,0.074,7.769-0.028,11.915-0.243
		c5.656-0.297,11.3-0.771,16.82-2.142c3.05-0.759,6.049-1.683,8.51-3.776c1.732-1.477,2.432-3.331,1.982-5.608
		c-0.229-1.178-0.588-2.299-1.122-3.366c-1.901-3.797-4.808-6.729-8.118-9.288c-16.751-12.965-41.361-13.617-58.812-1.566
		c-4.045,2.793-7.681,5.999-10.043,10.409c-2.88,5.379-1.605,9.031,3.957,11.471c4.514,1.981,9.324,2.7,14.162,3.241
		C36.608,91.906,43.354,92.071,50.641,92.022z"/>
	<path fill-rule="evenodd" clip-rule="evenodd" fill="#030303" d="M50.036,1.93c11.689,0.028,20.922,9.3,20.898,20.984
		c-0.024,11.369-9.466,20.648-20.961,20.598c-11.367-0.049-20.676-9.446-20.624-20.821C29.404,11.242,38.709,1.902,50.036,1.93z
		 M50.152,8.856c-7.561-0.021-13.821,6.155-13.868,13.686c-0.05,7.715,6.117,14.013,13.741,14.036
		c7.708,0.023,13.956-6.143,13.978-13.795C64.022,15.099,57.839,8.88,50.152,8.856z"/>
</g>
</svg>
