<?xml version="1.0" encoding="utf-8"?>
<!-- Generator: Adobe Illustrator 16.0.0, SVG Export Plug-In . SVG Version: 6.00 Build 0)  -->
<!DOCTYPE svg PUBLIC "-//W3C//DTD SVG 1.1//EN" "http://www.w3.org/Graphics/SVG/1.1/DTD/svg11.dtd">
<svg version="1.1" id="Layer_1" xmlns="http://www.w3.org/2000/svg" xmlns:xlink="http://www.w3.org/1999/xlink" x="0px" y="0px"
	 width="50px" height="50px" viewBox="0 0 50 50" enable-background="new 0 0 50 50" xml:space="preserve">
<path fill-rule="evenodd" clip-rule="evenodd" fill="#EF4438" d="M44.557,2.748c0.348,0,0.696,0,1.043,0
	c0.819,0.325,1.402,0.874,1.652,1.739c0,0.29,0,0.579,0,0.869c-0.187,0.635-0.611,1.095-1.067,1.551
	c-5.913,5.903-11.818,11.813-17.731,17.717c-0.12,0.117-0.3,0.176-0.452,0.261c0.026,0.066,0.053,0.131,0.079,0.196
	c0.136,0.107,0.284,0.202,0.406,0.324c5.9,5.897,11.796,11.797,17.698,17.69c0.456,0.455,0.877,0.919,1.067,1.551
	c0,0.289,0,0.579,0,0.868c-0.271,0.889-0.852,1.466-1.739,1.739c-0.29,0-0.579,0-0.868,0c-0.611-0.192-1.074-0.59-1.52-1.037
	c-5.912-5.925-11.834-11.841-17.749-17.764c-0.118-0.12-0.174-0.302-0.296-0.519c-0.257,0.293-0.363,0.431-0.485,0.555
	c-5.897,5.899-11.797,11.794-17.69,17.697c-0.455,0.456-0.916,0.881-1.55,1.067c-0.29,0-0.579,0-0.869,0
	c-0.884-0.277-1.469-0.851-1.739-1.739c0-0.289,0-0.579,0-0.868c0.187-0.634,0.612-1.096,1.068-1.549
	c5.91-5.901,11.814-11.811,17.721-17.717c0.12-0.119,0.234-0.245,0.428-0.451c-0.164-0.12-0.32-0.207-0.441-0.328
	C15.697,18.78,9.874,12.954,4.046,7.133C3.537,6.624,3.017,6.132,2.748,5.442c0-0.347,0-0.695,0-1.042
	c0.304-0.799,0.854-1.347,1.652-1.652c0.347,0,0.695,0,1.042,0c0.691,0.268,1.183,0.79,1.692,1.298
	c5.823,5.83,11.651,11.655,17.475,17.484c0.119,0.121,0.198,0.283,0.296,0.425c0.064,0.002,0.126,0.002,0.19,0.004
	c0.098-0.144,0.175-0.308,0.295-0.429c5.822-5.829,11.65-11.653,17.474-17.483C43.374,3.538,43.867,3.017,44.557,2.748z"/>
</svg>
