<?xml version="1.0" encoding="utf-8"?>
<!-- Generator: Adobe Illustrator 16.0.0, SVG Export Plug-In . SVG Version: 6.00 Build 0)  -->
<!DOCTYPE svg PUBLIC "-//W3C//DTD SVG 1.1//EN" "http://www.w3.org/Graphics/SVG/1.1/DTD/svg11.dtd">
<svg version="1.1" id="Layer_1" xmlns="http://www.w3.org/2000/svg" xmlns:xlink="http://www.w3.org/1999/xlink" x="0px" y="0px"
	 width="100px" height="100px" viewBox="0 0 100 100" enable-background="new 0 0 100 100" xml:space="preserve">
<g>
	<path fill-rule="evenodd" clip-rule="evenodd" fill="#030303" d="M217.357,98.971c-8.779-0.011-16.248-0.178-23.672-1.116
		c-5.73-0.723-11.396-1.774-16.576-4.524c-3.778-2.008-6.682-4.796-7.52-9.207c-0.736-3.869,0.277-7.435,2.104-10.811
		c2.902-5.364,7.188-9.455,12.164-12.833c10.336-7.019,21.796-10.465,34.271-9.964c13.799,0.554,26.022,5.303,36.221,14.787
		c3.494,3.249,6.314,7.019,7.791,11.645c2.097,6.571,0.056,12.12-5.807,15.728c-3.802,2.34-8.03,3.507-12.363,4.333
		C234.745,98.762,225.399,98.906,217.357,98.971z M216.641,92.022c3.619,0.074,7.769-0.028,11.915-0.243
		c5.656-0.297,11.3-0.771,16.82-2.142c3.05-0.759,6.049-1.683,8.51-3.776c1.732-1.477,2.432-3.331,1.982-5.608
		c-0.229-1.178-0.588-2.299-1.122-3.366c-1.901-3.797-4.808-6.729-8.118-9.288c-16.751-12.965-41.361-13.617-58.812-1.566
		c-4.045,2.793-7.682,5.999-10.043,10.409c-2.881,5.379-1.605,9.031,3.957,11.471c4.514,1.981,9.324,2.7,14.162,3.241
		C202.608,91.906,209.354,92.071,216.641,92.022z"/>
	<path fill-rule="evenodd" clip-rule="evenodd" fill="#030303" d="M216.036,1.93c11.689,0.028,20.922,9.3,20.898,20.984
		c-0.024,11.369-9.466,20.648-20.962,20.598c-11.367-0.049-20.676-9.446-20.623-20.821C195.404,11.242,204.709,1.902,216.036,1.93z
		 M216.152,8.856c-7.561-0.021-13.821,6.155-13.868,13.686c-0.05,7.715,6.116,14.013,13.741,14.036
		c7.708,0.023,13.956-6.143,13.978-13.795C230.022,15.099,223.839,8.88,216.152,8.856z"/>
</g>
<g>
	<path fill-rule="evenodd" clip-rule="evenodd" d="M74.044,36.307c-2.333,0-4.534,0-6.878,0c0-0.413,0-0.794,0-1.174
		c0-6.24,0-12.48,0-18.72c-0.003-4.822-2.78-7.596-7.606-7.601c-7.569,0-15.135,0-22.701,0c-4.765,0.004-7.566,2.788-7.566,7.533
		c0,22.522,0,45.038,0,67.554c0,4.747,2.802,7.533,7.566,7.539c7.603,0,15.207,0.006,22.805,0c4.682-0.006,7.499-2.817,7.502-7.494
		c0.005-6.238,0-12.479,0-18.715c0-0.394,0-0.782,0-1.253c2.283,0,4.52,0,6.829,0c0.014,0.352,0.049,0.701,0.049,1.048
		c0,6.49,0.005,12.978,0,19.468c-0.009,7.682-6.111,13.807-13.769,13.818c-8.031,0.015-16.063,0.015-24.094,0
		c-7.655-0.012-13.76-6.147-13.766-13.818c-0.002-22.915-0.002-45.824,0-68.736c0.005-7.67,6.12-13.811,13.766-13.82
		c8.031-0.007,16.063-0.007,24.094,0c7.614,0.01,13.754,6.133,13.766,13.715C74.055,22.496,74.044,29.34,74.044,36.307z"/>
	<path fill-rule="evenodd" clip-rule="evenodd" d="M52.831,32.836c1.771,1.627,3.434,3.146,5.156,4.724
		c-2.747,3.003-5.449,5.954-8.306,9.077c13.957,0,27.689,0,41.505,0c0,2.346,0,4.584,0,6.924c-13.732,0-27.432,0-41.42,0
		c2.856,3.155,5.529,6.114,8.27,9.15c-1.711,1.557-3.368,3.071-5.105,4.647c-1.362-1.498-2.677-2.941-3.99-4.394
		c-3.107-3.428-6.218-6.853-9.313-10.291c-1.652-1.841-1.657-3.513,0-5.324c4.228-4.635,8.471-9.253,12.706-13.877
		C52.503,33.289,52.643,33.084,52.831,32.836z"/>
</g>
</svg>
