<?xml version="1.0" encoding="utf-8"?>
<!-- Generator: Adobe Illustrator 16.0.0, SVG Export Plug-In . SVG Version: 6.00 Build 0)  -->
<!DOCTYPE svg PUBLIC "-//W3C//DTD SVG 1.1//EN" "http://www.w3.org/Graphics/SVG/1.1/DTD/svg11.dtd">
<svg version="1.1" id="Layer_1" xmlns="http://www.w3.org/2000/svg" xmlns:xlink="http://www.w3.org/1999/xlink" x="0px" y="0px"
	 width="50px" height="50px" viewBox="0 0 50 50" enable-background="new 0 0 50 50" xml:space="preserve">
<path fill-rule="evenodd" clip-rule="evenodd" fill="#4BAE4D" d="M18.737,35.11c0.156-0.226,0.268-0.462,0.441-0.638
	c8.178-8.183,16.363-16.366,24.538-24.553c0.75-0.75,1.594-1.135,2.647-0.834c1.705,0.494,2.348,2.483,1.262,3.891
	c-0.163,0.211-0.358,0.398-0.551,0.586c-8.79,8.796-17.584,17.588-26.38,26.386c-1.423,1.423-2.725,1.425-4.138,0.01
	c-3.941-3.938-7.881-7.885-11.828-11.82c-0.709-0.705-1.055-1.518-0.813-2.5c0.447-1.816,2.597-2.489,4.022-1.273
	c0.173,0.15,0.334,0.316,0.497,0.48c3.234,3.231,6.471,6.468,9.703,9.704C18.288,34.693,18.442,34.832,18.737,35.11z"/>
</svg>
