<?xml version="1.0" encoding="utf-8"?>
<!-- Generator: Adobe Illustrator 16.0.0, SVG Export Plug-In . SVG Version: 6.00 Build 0)  -->
<!DOCTYPE svg PUBLIC "-//W3C//DTD SVG 1.1//EN" "http://www.w3.org/Graphics/SVG/1.1/DTD/svg11.dtd">
<svg version="1.1" id="Layer_1" xmlns="http://www.w3.org/2000/svg" xmlns:xlink="http://www.w3.org/1999/xlink" x="0px" y="0px"
	 width="70px" height="70px" viewBox="0 0 70 70" enable-background="new 0 0 70 70" xml:space="preserve">
<g>
	<path fill-rule="evenodd" clip-rule="evenodd" d="M49.338,60.791c-0.761-0.125-1.523-0.234-2.278-0.38
		c-2.908-0.557-5.628-1.65-8.271-2.948c-5.321-2.615-10.153-5.951-14.392-10.094c-6.236-6.093-11.261-13.012-14.13-21.343
		c-0.801-2.328-1.295-4.71-1.236-7.192c0.054-2.314,0.783-4.358,2.395-6.035c1.442-1.499,2.918-2.965,4.403-4.422
		c0.909-0.89,2.013-1.455,3.253-1.75c0.529,0,1.058,0,1.587,0c1.79,0.398,3.046,1.588,4.27,2.845c2.04,2.097,4.146,4.131,6.14,6.271
		c1.821,1.954,1.814,4.838,0.015,6.82c-1.337,1.473-2.775,2.854-4.189,4.257c-0.26,0.259-0.336,0.438-0.163,0.799
		c1.15,2.409,2.737,4.512,4.482,6.505c2.52,2.878,5.318,5.447,8.545,7.52c0.781,0.504,1.615,0.934,2.446,1.354
		c0.126,0.066,0.423-0.039,0.548-0.162c1.199-1.168,2.374-2.361,3.562-3.542c0.899-0.895,1.904-1.624,3.184-1.869
		c1.806-0.345,3.358,0.211,4.64,1.466c2.382,2.329,4.748,4.676,7.073,7.062c2.277,2.335,2.44,5.121,0.313,7.573
		c-1.614,1.857-3.395,3.579-5.185,5.273c-1.205,1.139-2.735,1.7-4.389,1.894c-0.1,0.012-0.196,0.064-0.295,0.098
		C50.889,60.791,50.112,60.791,49.338,60.791z M49.93,58.043c2.204,0.039,3.708-0.378,4.889-1.522
		c1.559-1.505,3.072-3.063,4.546-4.65c1.181-1.275,1.181-2.602-0.031-3.85c-2.347-2.413-4.736-4.785-7.144-7.141
		c-1.003-0.979-2.244-0.979-3.347-0.105c-0.234,0.187-0.452,0.393-0.665,0.603c-1.313,1.306-2.615,2.621-3.932,3.923
		c-0.871,0.863-1.801,1.006-2.891,0.444c-0.767-0.396-1.537-0.785-2.274-1.229c-3.334-2.004-6.249-4.517-8.882-7.363
		c-2.439-2.634-4.662-5.422-6.144-8.733c-0.647-1.447-0.504-2.21,0.628-3.306c1.292-1.249,2.589-2.496,3.845-3.781
		c1.494-1.53,1.487-2.775-0.015-4.298c-2.178-2.209-4.376-4.399-6.584-6.579c-0.345-0.34-0.753-0.657-1.192-0.851
		c-1.237-0.544-2.223,0.02-3.084,0.864c-1.321,1.296-2.663,2.577-3.913,3.94c-0.606,0.662-1.15,1.443-1.499,2.265
		c-0.728,1.717-0.539,3.532-0.185,5.304c0.713,3.569,2.128,6.882,3.894,10.041c3.096,5.54,7.034,10.417,11.748,14.66
		c4.596,4.137,9.746,7.409,15.484,9.729C45.527,57.353,47.956,57.979,49.93,58.043z"/>
</g>
</svg>
