<?xml version="1.0" encoding="utf-8"?>
<!-- Generator: Adobe Illustrator 16.0.0, SVG Export Plug-In . SVG Version: 6.00 Build 0)  -->
<!DOCTYPE svg PUBLIC "-//W3C//DTD SVG 1.1//EN" "http://www.w3.org/Graphics/SVG/1.1/DTD/svg11.dtd">
<svg version="1.1" id="Layer_1" xmlns="http://www.w3.org/2000/svg" xmlns:xlink="http://www.w3.org/1999/xlink" x="0px" y="0px"
	 width="70px" height="70px" viewBox="0 0 70 70" enable-background="new 0 0 70 70" xml:space="preserve">
<g>
	<path fill-rule="evenodd" clip-rule="evenodd" d="M35.995,14.487c7.964,0,15.929-0.001,23.893,0c3.653,0,6.201,2.54,6.204,6.205
		c0.006,9.76,0.007,19.52,0,29.28c-0.004,3.635-2.585,6.205-6.229,6.206c-15.906,0.004-31.812,0.004-47.717,0
		c-3.679-0.001-6.237-2.575-6.239-6.267c-0.004-9.736-0.004-19.473,0-29.209c0.002-3.667,2.548-6.214,6.195-6.214
		C20.066,14.486,28.031,14.487,35.995,14.487z M9.689,53.404c0.876,0.177,1.575,0.437,2.276,0.441
		c5.341,0.035,10.682,0.019,16.023,0.019c10.636,0,21.271-0.002,31.907,0.006c0.823,0,1.589-0.134,2.316-0.668
		c-5.598-6.379-11.179-12.738-16.784-19.125c-0.231,0.195-0.425,0.354-0.611,0.518c-2.624,2.314-5.245,4.631-7.874,6.94
		c-0.705,0.619-1.177,0.607-1.878,0c-0.348-0.302-0.693-0.607-1.038-0.912c-2.449-2.159-4.896-4.319-7.394-6.523
		C21.027,40.485,15.445,46.846,9.689,53.404z M10.759,17.038c8.423,7.436,16.826,14.854,25.244,22.285
		c8.465-7.473,16.85-14.874,25.277-22.313C60.324,16.657,11.45,16.692,10.759,17.038z M8.884,18.433
		c-0.083,0.006-0.166,0.013-0.249,0.02c-0.139,0.635-0.396,1.27-0.398,1.905C8.213,30.34,8.219,40.323,8.227,50.306
		c0,0.327,0.083,0.654,0.148,1.127c5.572-6.35,11.039-12.577,16.541-18.848C19.529,27.83,14.207,23.131,8.884,18.433z
		 M63.291,18.287c-5.487,4.844-10.806,9.539-16.159,14.265c5.499,6.263,10.949,12.473,16.517,18.816
		c0.059-0.465,0.124-0.733,0.124-1.001c0.005-10.035,0.012-20.068-0.016-30.103C63.756,19.657,63.479,19.05,63.291,18.287z"/>
</g>
</svg>
