<?xml version="1.0" encoding="utf-8"?>
<!-- Generator: Adobe Illustrator 16.0.0, SVG Export Plug-In . SVG Version: 6.00 Build 0)  -->
<!DOCTYPE svg PUBLIC "-//W3C//DTD SVG 1.1//EN" "http://www.w3.org/Graphics/SVG/1.1/DTD/svg11.dtd">
<svg version="1.1" id="Layer_1" xmlns="http://www.w3.org/2000/svg" xmlns:xlink="http://www.w3.org/1999/xlink" x="0px" y="0px"
	 width="70px" height="70px" viewBox="0 0 70 70" enable-background="new 0 0 70 70" xml:space="preserve">
<g>
	<path fill-rule="evenodd" clip-rule="evenodd" d="M4.994,22.026c0.098-0.416,0.187-0.833,0.295-1.246
		c0.726-2.742,2.486-4.722,4.724-6.332c2.992-2.152,6.383-3.419,9.919-4.323c6.957-1.778,14.022-2.162,21.158-1.561
		c4.593,0.387,9.097,1.218,13.424,2.849c2.906,1.095,5.63,2.51,7.841,4.753c1.557,1.58,2.607,3.425,2.911,5.654
		c0.01,0.071,0.062,0.137,0.095,0.206c0,2.437,0,4.873,0,7.31c-0.098,0.314-0.183,0.633-0.295,0.942
		c-0.786,2.177-3.023,3.459-5.315,3.024c-2.581-0.49-5.163-0.99-7.739-1.512c-2.172-0.44-3.718-2.318-3.75-4.531
		c-0.02-1.336-0.043-2.673,0.012-4.007c0.025-0.608-0.211-0.953-0.735-1.095c-1.379-0.373-2.75-0.839-4.156-1.033
		c-5.652-0.782-11.317-0.799-16.962,0.095c-1.21,0.192-2.389,0.604-3.571,0.951c-0.535,0.157-0.794,0.508-0.766,1.14
		c0.057,1.275,0.026,2.554,0.014,3.83c-0.022,2.357-1.548,4.208-3.867,4.672c-2.539,0.509-5.079,1.011-7.625,1.49
		c-2.542,0.479-4.933-1.12-5.496-3.642c-0.026-0.11-0.076-0.214-0.115-0.322C4.994,26.899,4.994,24.463,4.994,22.026z
		 M36.169,18.233c1.029,0.054,3.07,0.131,5.106,0.281c1.114,0.082,2.224,0.259,3.325,0.449c1.55,0.268,3.075,0.64,4.449,1.454
		c1.028,0.608,1.587,1.456,1.538,2.706c-0.053,1.334-0.027,2.671-0.006,4.007c0.019,1.244,0.739,2.149,1.945,2.394
		c2.52,0.511,5.042,1.006,7.57,1.465c1.704,0.309,2.912-0.747,2.921-2.493c0.007-1.67,0.007-3.34-0.002-5.01
		c-0.002-0.49,0.003-0.986-0.076-1.467c-0.379-2.336-1.767-4.027-3.572-5.419c-2.692-2.074-5.808-3.242-9.043-4.127
		c-4.343-1.187-8.78-1.709-13.27-1.825c-6.2-0.16-12.32,0.403-18.283,2.198c-2.947,0.887-5.767,2.066-8.168,4.059
		c-2.153,1.787-3.44,3.979-3.285,6.892c0.079,1.489,0.092,2.991-0.007,4.478c-0.116,1.748,1.241,3.155,3.313,2.677
		c2.312-0.534,4.655-0.931,6.986-1.382c1.407-0.271,2.152-1.141,2.165-2.576c0.01-1.315,0.035-2.633-0.008-3.948
		c-0.037-1.148,0.434-2.019,1.408-2.526c0.932-0.485,1.917-0.924,2.929-1.186C27.726,18.401,31.438,18.272,36.169,18.233z"/>
	<path fill-rule="evenodd" clip-rule="evenodd" d="M35.14,61.693c-7.289,0-14.577-0.002-21.865,0.003
		c-0.836,0-1.647-0.084-2.378-0.535c-1.194-0.736-1.864-1.811-1.877-3.208c-0.032-3.379-0.023-6.756-0.003-10.135
		c0.007-1.189,0.498-2.2,1.292-3.08c2.922-3.236,5.835-6.481,8.752-9.722c1.498-1.665,2.991-3.334,4.497-4.991
		c0.474-0.521,0.716-1.11,0.706-1.815c-0.011-0.747-0.021-1.494,0.005-2.24c0.062-1.805,1.294-2.99,3.105-2.992
		c5.206-0.003,10.412-0.004,15.617,0c1.804,0.001,3.031,1.196,3.093,3.006c0.024,0.707,0.022,1.415,0.002,2.122
		c-0.023,0.77,0.238,1.401,0.755,1.973c4.317,4.783,8.608,9.589,12.942,14.356c1.081,1.188,1.602,2.497,1.576,4.103
		c-0.048,2.986-0.013,5.972-0.014,8.959c-0.002,2.624-1.547,4.19-4.165,4.193C49.834,61.697,42.487,61.693,35.14,61.693z
		 M35.118,59.381c7.349,0,14.698,0,22.048-0.001c1.29,0,1.843-0.542,1.845-1.813c0.002-3.144-0.009-6.288,0.006-9.432
		c0.004-0.73-0.23-1.331-0.72-1.867c-1.441-1.582-2.867-3.181-4.3-4.773c-2.957-3.285-5.909-6.578-8.876-9.855
		c-0.913-1.01-1.397-2.159-1.353-3.53c0.022-0.667,0.003-1.336,0.004-2.004c0.002-0.528-0.236-0.795-0.785-0.795
		c-5.207,0.005-10.415,0.005-15.623,0c-0.549,0-0.787,0.266-0.785,0.795c0.003,0.589-0.028,1.181,0.005,1.769
		c0.089,1.546-0.474,2.808-1.507,3.946c-4.344,4.788-8.654,9.606-12.986,14.405c-0.516,0.571-0.764,1.196-0.758,1.971
		c0.019,3.065,0.008,6.131,0.008,9.196c0,1.509,0.489,1.988,2.022,1.988C20.615,59.381,27.867,59.381,35.118,59.381z"/>
	<path fill-rule="evenodd" clip-rule="evenodd" d="M23.821,44.96c0.024-6.272,5.12-11.359,11.369-11.346
		c6.283,0.013,11.378,5.15,11.341,11.433c-0.036,6.305-5.131,11.328-11.456,11.299C28.853,56.315,23.798,51.201,23.821,44.96z
		 M35.205,54.026c4.988-0.022,9.034-4.082,9.023-9.052c-0.011-4.994-4.103-9.051-9.11-9.032c-4.956,0.02-9.021,4.128-8.994,9.09
		C26.153,50.009,30.233,54.051,35.205,54.026z"/>
	<path fill-rule="evenodd" clip-rule="evenodd" d="M35.2,51.565c-3.586,0.026-6.573-2.921-6.608-6.523
		c-0.035-3.59,2.914-6.594,6.502-6.626c3.644-0.033,6.626,2.883,6.667,6.519C41.805,48.544,38.843,51.537,35.2,51.565z
		 M39.427,45.011c0.009-2.371-1.885-4.269-4.257-4.265c-2.347,0.004-4.233,1.879-4.243,4.22c-0.009,2.357,1.909,4.287,4.257,4.283
		C37.508,49.246,39.418,47.338,39.427,45.011z"/>
</g>
</svg>
