<?xml version="1.0" encoding="utf-8"?>
<!-- Generator: Adobe Illustrator 16.0.0, SVG Export Plug-In . SVG Version: 6.00 Build 0)  -->
<!DOCTYPE svg PUBLIC "-//W3C//DTD SVG 1.1//EN" "http://www.w3.org/Graphics/SVG/1.1/DTD/svg11.dtd">
<svg version="1.1" id="Layer_1" xmlns="http://www.w3.org/2000/svg" xmlns:xlink="http://www.w3.org/1999/xlink" x="0px" y="0px"
	 width="70px" height="70px" viewBox="0 0 70 70" enable-background="new 0 0 70 70" xml:space="preserve">
<g>
	<path fill-rule="evenodd" clip-rule="evenodd" d="M37.42,60.96c-5.398-0.039-9.978-1.242-14.196-3.742
		c-0.424-0.251-0.748-0.268-1.203-0.07c-3.47,1.502-6.952,2.973-10.434,4.449c-0.781,0.332-1.306,0.252-1.731-0.25
		c-0.401-0.475-0.36-0.986-0.155-1.539c1.342-3.604,2.661-7.218,4.016-10.816c0.181-0.479,0.143-0.827-0.122-1.262
		c-5.867-9.641-5.143-21.711,1.939-30.452c4.293-5.296,9.916-8.358,16.684-9.241c14.848-1.939,27.864,8.667,30.253,22.312
		c2.131,12.168-4.146,23.854-15.447,28.626C44.027,60.237,40.394,60.953,37.42,60.96z M13.137,58.102
		c2.943-1.248,5.729-2.399,8.486-3.615c0.866-0.383,1.558-0.354,2.383,0.159c5.421,3.364,11.305,4.52,17.563,3.285
		c12.492-2.463,20.902-14.496,18.177-27.817C57.323,18.269,46.16,9.425,33.601,10.526c-5.696,0.5-10.605,2.732-14.604,6.814
		c-7.432,7.586-8.873,19.277-3.423,28.476c0.995,1.68,1.158,3.024,0.385,4.775C14.904,52.981,14.104,55.484,13.137,58.102z"/>
	<path fill-rule="evenodd" clip-rule="evenodd" d="M43.895,49.762c-3.604-0.222-6.868-1.577-9.904-3.539
		c-5.311-3.431-9.336-7.981-11.66-13.895c-0.64-1.626-0.93-3.408-1.222-5.144c-0.286-1.707,0.226-3.294,1.195-4.723
		c1.091-1.609,2.479-2.893,4.251-3.709c1.718-0.792,3.188-0.321,4.171,1.278c0.824,1.341,1.646,2.684,2.46,4.032
		c0.248,0.411,0.48,0.835,0.685,1.27c0.719,1.538,0.567,2.473-0.661,3.661c-0.659,0.637-1.383,1.211-2.101,1.783
		c-0.356,0.285-0.452,0.593-0.208,0.957c0.827,1.229,1.587,2.518,2.533,3.649c1.482,1.769,3.208,3.292,5.266,4.389
		c0.957,0.511,0.961,0.488,1.662-0.35c0.533-0.638,1.06-1.283,1.633-1.884c0.951-0.998,2.077-1.244,3.342-0.631
		c0.53,0.258,1.054,0.531,1.56,0.834c1.295,0.774,2.576,1.574,3.865,2.356c1.714,1.042,2.231,2.521,1.295,4.304
		c-1.49,2.841-3.64,4.909-6.99,5.356C44.7,49.805,44.323,49.762,43.895,49.762z M23.571,26.446c0.234,1.189,0.363,2.375,0.71,3.492
		c1.534,4.935,4.51,8.897,8.466,12.146c2.942,2.416,6.19,4.251,10,4.941c2.945,0.532,5.728-0.935,6.95-3.695
		c0.148-0.332,0.271-0.647-0.154-0.902c-1.633-0.976-3.261-1.958-4.879-2.956c-0.462-0.285-0.781-0.2-1.112,0.21
		c-0.618,0.766-1.261,1.513-1.913,2.249c-0.746,0.846-1.695,1.092-2.736,0.708c-0.835-0.308-1.676-0.658-2.424-1.132
		c-2.331-1.476-4.335-3.343-5.983-5.549c-0.815-1.094-1.547-2.285-2.105-3.527c-0.69-1.537-0.406-2.375,0.85-3.49
		c0.639-0.566,1.292-1.117,1.965-1.642c0.434-0.339,0.451-0.673,0.176-1.12c-0.951-1.544-1.904-3.089-2.811-4.66
		c-0.311-0.535-0.652-0.572-1.124-0.305c-1.442,0.817-2.624,1.907-3.344,3.414C23.835,25.184,23.746,25.826,23.571,26.446z"/>
</g>
</svg>
